<svg width="23" height="23" viewBox="0 0 23 23" fill="none" xmlns="http://www.w3.org/2000/svg">
<path d="M11.5 12C13.433 12 15 10.433 15 8.5C15 6.567 13.433 5 11.5 5C9.567 5 8 6.567 8 8.5C8 10.433 9.567 12 11.5 12Z" fill="#252525"/>
<path d="M20.6909 8.59449C20.8122 8.43728 20.9008 8.25733 20.9512 8.0653C21.0017 7.87328 21.0132 7.67308 20.9848 7.47657C20.9565 7.28006 20.889 7.09123 20.7863 6.92125C20.6836 6.75128 20.5478 6.60362 20.387 6.48703L19.7577 6.03068C19.5502 5.88032 19.3851 5.67885 19.2787 5.44587C19.1722 5.21289 19.1278 4.95634 19.1499 4.70116L19.2165 3.92681C19.2347 3.72839 19.2127 3.52835 19.1518 3.33861C19.091 3.14887 18.9925 2.97332 18.8623 2.82242C18.7321 2.67152 18.5728 2.54836 18.3939 2.4603C18.2151 2.37223 18.0203 2.32106 17.8212 2.30983L17.0444 2.26671C16.7886 2.25215 16.5409 2.1717 16.3254 2.03318C16.1099 1.89465 15.9339 1.70277 15.8146 1.47618L15.455 0.788068C15.3617 0.612573 15.2341 0.457579 15.0798 0.332276C14.9255 0.206974 14.7475 0.113916 14.5565 0.0586207C14.3655 0.0033258 14.1653 -0.0130796 13.9679 0.0103773C13.7704 0.0338343 13.5797 0.0966759 13.407 0.195175L12.7309 0.577861C12.5077 0.704145 12.2556 0.770519 11.9991 0.770519C11.7426 0.770519 11.4905 0.704145 11.2673 0.577861L10.5912 0.195175C10.4182 0.0972349 10.2272 0.0350248 10.0296 0.0122358C9.83203 -0.0105533 9.63188 0.00654304 9.44104 0.0625104C9.2502 0.118478 9.07255 0.212176 8.91864 0.338046C8.76473 0.463916 8.63768 0.619394 8.54505 0.795255L8.18544 1.48337C8.0661 1.70996 7.89013 1.90184 7.67462 2.04036C7.45911 2.17889 7.2114 2.25934 6.95557 2.27389L6.17881 2.31701C5.97973 2.32824 5.78495 2.37942 5.60608 2.46748C5.42721 2.55555 5.26793 2.6787 5.13772 2.8296C5.00751 2.9805 4.90904 3.15606 4.84819 3.3458C4.78734 3.53554 4.76534 3.73558 4.78353 3.934L4.85005 4.70835C4.87219 4.96352 4.82785 5.22008 4.72135 5.45305C4.61485 5.68603 4.44982 5.8875 4.24231 6.03787L3.61299 6.49422C3.45217 6.61081 3.31639 6.75847 3.21371 6.92844C3.11102 7.09841 3.04351 7.28725 3.01518 7.48376C2.98684 7.68027 2.99826 7.88047 3.04875 8.07249C3.09924 8.26451 3.18778 8.44446 3.30912 8.60168L3.78381 9.21613C3.94049 9.41875 4.04204 9.65842 4.07859 9.91186C4.11514 10.1653 4.08544 10.4239 3.99238 10.6624L3.71009 11.3811C3.63793 11.566 3.60363 11.7636 3.60923 11.962C3.61484 12.1604 3.66023 12.3557 3.74271 12.5363C3.8252 12.7169 3.94311 12.8791 4.08945 13.0134C4.2358 13.1476 4.40762 13.2512 4.59473 13.3179L5.32654 13.5784C5.56815 13.6642 5.78341 13.8111 5.95135 14.0047C6.1193 14.1984 6.23421 14.4322 6.2849 14.6833L6.42515 15.3661L4.55697 21.4333L7.52016 20.5063L9.36496 23L11.0497 17.4969C11.3019 17.706 11.6162 17.8259 11.9437 17.838C12.2712 17.85 12.5935 17.7534 12.8604 17.5634L14.6332 23L16.478 20.5063L19.4412 21.4333L17.5281 15.5691C17.5407 15.5278 17.5515 15.4882 17.5605 15.4451L17.7133 14.6833C17.764 14.4322 17.8789 14.1984 18.0468 14.0047C18.2148 13.8111 18.43 13.6642 18.6717 13.5784L19.4035 13.3179C19.5906 13.2512 19.7624 13.1476 19.9087 13.0134C20.0551 12.8791 20.173 12.7169 20.2555 12.5363C20.338 12.3557 20.3834 12.1604 20.389 11.962C20.3946 11.7636 20.3603 11.566 20.2881 11.3811L20.0058 10.6624C19.9128 10.4239 19.8831 10.1653 19.9196 9.91186C19.9562 9.65842 20.0577 9.41875 20.2144 9.21613L20.6909 8.59449ZM6.86567 8.92148C6.86567 7.90698 7.16674 6.91526 7.73081 6.07173C8.29488 5.2282 9.09661 4.57075 10.0346 4.18251C10.9726 3.79428 12.0048 3.6927 13.0006 3.89062C13.9964 4.08854 14.9111 4.57707 15.629 5.29443C16.3469 6.0118 16.8358 6.92577 17.0339 7.92078C17.232 8.91579 17.1303 9.94715 16.7418 10.8844C16.3532 11.8217 15.6953 12.6228 14.8511 13.1864C14.0069 13.7501 13.0144 14.0509 11.9991 14.0509C10.6381 14.0495 9.33319 13.5086 8.37079 12.547C7.4084 11.5853 6.8671 10.2815 6.86567 8.92148Z" fill="#252525"/>
</svg>
