<svg width="20" height="21" viewBox="0 0 20 21" fill="none" xmlns="http://www.w3.org/2000/svg">
<path d="M13.2495 1H5.75051C5.22022 1 4.8572 1.53625 5.05446 2.02825L5.74976 4H13.2502L13.9455 2.02825C14.1428 1.53625 13.7798 1 13.2495 1Z" fill="#252525"/>
<path d="M13.75 6H6.25C6.25 6 1 10.7368 1 16.2632C1 19.4211 3.25 21 4.75 21C6.25 21 10 21 10 21C10 21 13.75 21 15.25 21C16.75 21 19 19.4211 19 16.2632C19 10.7368 13.75 6 13.75 6ZM10.75 16.9721V18.2368H9.25V16.9761C8.14675 16.7582 7.453 16.0445 7.4125 15.0016H8.7115C8.77375 15.5495 9.29875 15.9008 10.0555 15.9008C10.7537 15.9008 11.248 15.5447 11.248 15.0339C11.248 14.6029 10.9278 14.355 10.1403 14.1766L9.304 13.9895C8.134 13.7321 7.5595 13.0903 7.5595 12.06C7.5595 11.0234 8.21125 10.2845 9.25 10.0413V8.76316H10.75V10.0389C11.7625 10.2774 12.439 11.0037 12.472 11.985H11.2083C11.146 11.4513 10.6742 11.0953 10.0247 11.0953C9.35275 11.0953 8.908 11.4229 8.908 11.9384C8.908 12.3553 9.21475 12.5945 9.967 12.7626L10.741 12.9363C12.0317 13.2221 12.5875 13.8079 12.5875 14.8563C12.5875 15.9853 11.899 16.7424 10.75 16.9721Z" fill="#252525"/>
<path d="M12 2H7C7 0.895333 8.11917 0 9.5 0C10.8808 0 12 0.895333 12 2Z" fill="#252525"/>
</svg>
