<svg width="20" height="19" viewBox="0 0 20 19" fill="none" xmlns="http://www.w3.org/2000/svg">
<path d="M17.0833 0H2.91667C2.14547 0.00740733 1.40801 0.309345 0.862672 0.840966C0.317329 1.37259 0.00759852 2.09149 0 2.84328L0 13.404C0.0293569 14.1815 0.312353 14.9295 0.807833 15.5393C1.30331 16.1491 1.98544 16.589 2.755 16.7949L12.0542 18.9241C12.4081 19.0134 12.7781 19.0241 13.1368 18.9553C13.4955 18.8865 13.8338 18.7401 14.1267 18.5268C14.4099 18.3008 14.636 18.0143 14.7874 17.6894C14.9388 17.3646 15.0116 17.0101 15 16.6535V8.78005C14.9987 8.02452 14.744 7.29013 14.2747 6.68881C13.8055 6.0875 13.1474 5.65223 12.4008 5.44935L3.38 3.02444C3.30088 3.0031 3.22684 2.96678 3.16212 2.91755C3.0974 2.86832 3.04325 2.80715 3.00278 2.73752C2.96231 2.6679 2.93631 2.59118 2.92625 2.51176C2.91619 2.43233 2.92228 2.35176 2.94417 2.27462C2.96605 2.19749 3.00331 2.12532 3.05381 2.06223C3.10431 1.99913 3.16706 1.94635 3.23849 1.9069C3.30991 1.86745 3.38861 1.84209 3.47008 1.83229C3.55155 1.82249 3.63421 1.82842 3.71333 1.84976L6.65833 2.64181H6.66833H17.0833C17.2491 2.64181 17.4081 2.70601 17.5253 2.82027C17.6425 2.93453 17.7083 3.0895 17.7083 3.25109C17.7083 3.41268 17.6425 3.56765 17.5253 3.68191C17.4081 3.79617 17.2491 3.86036 17.0833 3.86036H12.7208C12.6704 3.86026 12.6216 3.87801 12.5836 3.91031C12.5455 3.94261 12.5208 3.98727 12.514 4.036C12.5072 4.08472 12.5187 4.13421 12.5465 4.17527C12.5743 4.21632 12.6164 4.24616 12.665 4.25923L12.7367 4.27873C13.686 4.53575 14.5303 5.07329 15.1533 5.81735C15.1731 5.84041 15.1979 5.85898 15.2258 5.87175C15.2537 5.88452 15.2842 5.89118 15.315 5.89128H17.0833C17.2491 5.89128 17.4081 5.95547 17.5253 6.06973C17.6425 6.18399 17.7083 6.33896 17.7083 6.50055C17.7083 6.66214 17.6425 6.81711 17.5253 6.93137C17.4081 7.04564 17.2491 7.10983 17.0833 7.10983H16.2183C16.1854 7.10963 16.1529 7.11707 16.1235 7.13155C16.0941 7.14602 16.0687 7.16711 16.0493 7.19307C16.0299 7.21902 16.0171 7.2491 16.0121 7.28082C16.007 7.31254 16.0097 7.34498 16.02 7.37547C16.1732 7.82934 16.2522 8.30387 16.2542 8.78168V14.4211C16.2542 14.475 16.2761 14.5266 16.3152 14.5647C16.3543 14.6028 16.4072 14.6242 16.4625 14.6242H17.0833C17.8569 14.6242 18.5987 14.3247 19.1457 13.7914C19.6927 13.2582 20 12.535 20 11.7809V2.84491C20.0002 2.47138 19.9249 2.10148 19.7785 1.75633C19.632 1.41118 19.4172 1.09755 19.1463 0.833352C18.8755 0.569157 18.5539 0.359577 18.1999 0.216587C17.8459 0.0735974 17.4665 -6.09831e-08 17.0833 0ZM12.9167 12.1855C12.9167 12.5068 12.8189 12.821 12.6358 13.0881C12.4526 13.3553 12.1923 13.5636 11.8878 13.6865C11.5833 13.8095 11.2482 13.8417 10.9248 13.779C10.6015 13.7163 10.3046 13.5616 10.0715 13.3343C9.8384 13.1071 9.67967 12.8176 9.61536 12.5025C9.55105 12.1873 9.58405 11.8606 9.7102 11.5637C9.83635 11.2668 10.05 11.0131 10.324 10.8346C10.5981 10.656 10.9204 10.5608 11.25 10.5608C11.692 10.5608 12.1159 10.7319 12.4285 11.0366C12.7411 11.3413 12.9167 11.7546 12.9167 12.1855Z" fill="#252525"/>
</svg>
