<svg width="15" height="20" viewBox="0 0 15 20" fill="none" xmlns="http://www.w3.org/2000/svg">
<path d="M8 11C9.65685 11 11 9.65685 11 8C11 6.34315 9.65685 5 8 5C6.34315 5 5 6.34315 5 8C5 9.65685 6.34315 11 8 11Z" fill="#252525"/>
<path d="M14.7424 7.47347C14.8435 7.33676 14.9173 7.18029 14.9594 7.01331C15.0014 6.84633 15.011 6.67225 14.9874 6.50137C14.9637 6.33049 14.9075 6.16628 14.8219 6.01848C14.7363 5.87068 14.6232 5.74228 14.4892 5.64089L13.9647 5.24407C13.7918 5.11332 13.6543 4.93813 13.5655 4.73554C13.4768 4.53295 13.4398 4.30986 13.4583 4.08797L13.5137 3.41462C13.5289 3.24208 13.5106 3.06813 13.4598 2.90314C13.4091 2.73815 13.3271 2.58549 13.2186 2.45428C13.1101 2.32306 12.9773 2.21597 12.8283 2.13939C12.6792 2.06281 12.5169 2.01831 12.351 2.00855L11.7037 1.97105C11.4905 1.95839 11.2841 1.88843 11.1045 1.76798C10.9249 1.64752 10.7782 1.48067 10.6788 1.28364L10.3791 0.685277C10.3014 0.532673 10.1951 0.397894 10.0665 0.288936C9.93788 0.179977 9.7896 0.099057 9.63043 0.0509745C9.47126 0.002892 9.30446 -0.0113736 9.1399 0.00902376C8.97535 0.0294211 8.8164 0.084066 8.67248 0.169718L8.10909 0.502488C7.92309 0.6123 7.71299 0.670017 7.49925 0.670017C7.28551 0.670017 7.07541 0.6123 6.88941 0.502488L6.32602 0.169718C6.18181 0.0845521 6.02265 0.0304564 5.858 0.0106398C5.69336 -0.00917675 5.52657 0.0056896 5.36753 0.0543569C5.2085 0.103024 5.06046 0.184501 4.9322 0.293953C4.80394 0.403405 4.69807 0.538603 4.62087 0.691526L4.3212 1.28989C4.22175 1.48692 4.07511 1.65377 3.89552 1.77423C3.71593 1.89468 3.5095 1.96464 3.29631 1.9773L2.64901 2.01479C2.48311 2.02456 2.32079 2.06906 2.17173 2.14564C2.02268 2.22222 1.88994 2.32931 1.78143 2.46053C1.67292 2.59174 1.59087 2.7444 1.54016 2.90939C1.48945 3.07438 1.47112 3.24833 1.48627 3.42087L1.54171 4.09422C1.56015 4.31611 1.52321 4.5392 1.43446 4.74179C1.34571 4.94438 1.20818 5.11957 1.03526 5.25032L0.510829 5.64714C0.376809 5.74853 0.263662 5.87693 0.178091 6.02473C0.0925187 6.17253 0.0362611 6.33674 0.0126489 6.50762C-0.0109633 6.6785 -0.00145003 6.85258 0.0406255 7.01956C0.0827011 7.18653 0.156483 7.34301 0.257603 7.47972L0.653174 8.01403C0.783742 8.19022 0.868367 8.39863 0.898824 8.61901C0.929281 8.83938 0.904533 9.06423 0.826986 9.27168L0.591741 9.8966C0.531605 10.0574 0.503026 10.2292 0.507695 10.4017C0.512365 10.5743 0.550188 10.7441 0.618927 10.9012C0.687665 11.0582 0.785921 11.1992 0.907879 11.316C1.02984 11.4327 1.17302 11.5228 1.32894 11.5808L1.93878 11.8073C2.14013 11.8819 2.31951 12.0097 2.45946 12.178C2.59942 12.3464 2.69517 12.5497 2.73741 12.7681L2.85429 13.3618L1.29748 18.6377L3.7668 17.8315L5.30413 20L6.70811 15.2147C6.91826 15.3965 7.18019 15.5008 7.45311 15.5113C7.72602 15.5217 7.99459 15.4378 8.21697 15.2725L9.69437 20L11.2317 17.8315L13.701 18.6377L12.1068 13.5383C12.1172 13.5024 12.1262 13.468 12.1337 13.4305L12.2611 12.7681C12.3033 12.5497 12.3991 12.3464 12.539 12.178C12.679 12.0097 12.8584 11.8819 13.0597 11.8073L13.6696 11.5808C13.8255 11.5228 13.9687 11.4327 14.0906 11.316C14.2126 11.1992 14.3108 11.0582 14.3796 10.9012C14.4483 10.7441 14.4861 10.5743 14.4908 10.4017C14.4955 10.2292 14.4669 10.0574 14.4068 9.8966L14.1715 9.27168C14.094 9.06423 14.0692 8.83938 14.0997 8.61901C14.1301 8.39863 14.2148 8.19022 14.3453 8.01403L14.7424 7.47347ZM3.22139 7.75781C3.22139 6.87563 3.47228 6.01327 3.94234 5.27976C4.4124 4.54626 5.08051 3.97456 5.86218 3.63697C6.64386 3.29937 7.504 3.21104 8.33382 3.38315C9.16364 3.55525 9.92589 3.98006 10.5242 4.60386C11.1224 5.22765 11.5299 6.02241 11.6949 6.88764C11.86 7.75286 11.7753 8.6497 11.4515 9.46472C11.1277 10.2797 10.5794 10.9764 9.8759 11.4665C9.17241 11.9566 8.34533 12.2182 7.49925 12.2182C6.36506 12.2169 5.27766 11.7466 4.47566 10.9104C3.67366 10.0742 3.22258 8.94039 3.22139 7.75781Z" fill="#252525"/>
</svg>
