<svg width="21" height="20" viewBox="0 0 21 20" fill="none" xmlns="http://www.w3.org/2000/svg">
<path d="M20.5268 14.7556C20.0315 13.9943 19.0738 13.5088 17.1659 12.5415C16.7405 12.3258 16.2583 12.0813 15.7255 11.8054C15.6435 11.763 15.5426 11.7739 15.4726 11.833L12.2019 14.5842L8.92135 11.833C8.85121 11.7742 8.75056 11.7633 8.66869 11.8057C8.10721 12.0963 7.60352 12.351 7.15909 12.5757C5.28135 13.525 4.3388 14.0015 3.85113 14.7552C3.81222 14.8154 3.77675 14.8771 3.74395 14.9403C1.79158 14.2894 0.446811 12.4948 0.446811 10.5002C0.446811 7.90821 2.64954 5.79951 5.35706 5.79951C6.32826 5.79951 7.26341 6.07 8.06754 6.58114C8.60223 8.50631 10.0267 10.7151 12.2795 10.7151C15.2025 10.7151 16.7315 6.99759 16.7315 5.00476C16.7315 2.79651 14.7343 1 12.2795 1C9.82494 1 7.82804 2.79651 7.82804 5.00476C7.82804 5.30397 7.8628 5.64222 7.93122 6.00074C7.14545 5.58708 6.26566 5.3697 5.35706 5.3697C2.40313 5.3697 0 7.67124 0 10.5002C0 11.6294 0.375768 12.7006 1.08673 13.598C1.71987 14.3972 2.59819 15.0084 3.58055 15.3403C3.36727 16.0255 3.37762 16.935 3.39474 18.4019C3.3995 18.8107 3.40489 19.2742 3.40594 19.7855C3.40618 19.904 3.50612 20 3.62937 20H20.7581C20.8813 20 20.9813 19.904 20.9815 19.7855C20.9825 19.2863 20.9876 18.832 20.9922 18.4312C21.014 16.4937 21.0249 15.5212 20.5268 14.7556ZM4.03556 15.3841C4.03546 15.3843 4.03541 15.3846 4.03532 15.3848C4.03541 15.3845 4.03546 15.3843 4.03556 15.3841ZM3.99298 15.5186C3.99002 15.5288 3.98716 15.5392 3.98435 15.5496C3.98721 15.5392 3.99002 15.5288 3.99298 15.5186ZM3.97343 15.5913C3.97076 15.6018 3.96804 15.6122 3.96547 15.6228C3.96804 15.6122 3.97076 15.6017 3.97343 15.5913ZM4.12176 15.2283C4.12243 15.2188 4.12195 15.2094 4.12133 15.2001C4.12205 15.2094 4.12229 15.2188 4.12176 15.2283ZM4.11928 15.1815C4.13473 15.1493 4.15109 15.118 4.16816 15.0871C4.15113 15.118 4.13473 15.1493 4.11928 15.1815ZM4.12062 15.2384C4.11928 15.2505 4.11719 15.2627 4.11347 15.2749C4.10999 15.2864 4.10555 15.2972 4.10036 15.3076C4.10555 15.2972 4.10999 15.2864 4.11347 15.2749C4.11719 15.2627 4.11919 15.2505 4.12062 15.2384ZM4.08624 15.3308C4.08495 15.3327 4.084 15.3348 4.08267 15.3366C4.084 15.3348 4.085 15.3327 4.08624 15.3308ZM3.87125 16.2316C3.87011 16.2445 3.86906 16.2575 3.86796 16.2706C3.86901 16.2576 3.87006 16.2445 3.87125 16.2316ZM3.86343 16.327C3.86243 16.3405 3.86143 16.354 3.86048 16.3677C3.86148 16.354 3.86243 16.3405 3.86343 16.327ZM3.85657 16.4274C3.85576 16.4405 3.8549 16.4534 3.85413 16.4666C3.85494 16.4534 3.85576 16.4405 3.85657 16.4274ZM3.8446 16.6693C3.84412 16.6827 3.84364 16.6964 3.84317 16.7099C3.84364 16.6964 3.84407 16.6827 3.8446 16.6693ZM3.83378 17.5707C3.83382 17.5834 3.83382 17.596 3.83392 17.6088C3.83387 17.5959 3.83382 17.5834 3.83378 17.5707ZM3.83602 17.8891C3.83616 17.905 3.8363 17.921 3.83649 17.9369C3.83635 17.921 3.83616 17.905 3.83602 17.8891ZM3.83754 18.0386C3.83773 18.0566 3.83792 18.0746 3.83811 18.0928C3.83788 18.0746 3.83769 18.0566 3.83754 18.0386ZM3.83926 18.1978C3.8394 18.2142 3.83964 18.2305 3.83978 18.2471C3.83964 18.2306 3.83945 18.2142 3.83926 18.1978Z" fill="#252525"/>
<path d="M4.30826 11.0458C4.18825 10.8987 4.10588 10.7243 4.06268 10.5211L3 10.6383C3.08237 11.1345 3.26909 11.5198 3.56357 11.7918C3.8577 12.0639 4.21921 12.2452 4.68776 12.2989L4.69184 13L5.28602 12.9881L5.28791 12.2703C5.8221 12.192 6.25113 11.9975 6.55082 11.6826C6.85087 11.3674 7 10.9808 7 10.5211C7 10.1098 6.88142 9.77262 6.64288 9.50962C6.40588 9.24791 5.95818 9.03322 5.30137 8.869V7.38073C5.56638 7.4875 5.73076 7.6908 5.79487 7.99002L6.83261 7.86512C6.76141 7.48372 6.59698 7.17891 6.34018 6.95098C6.08222 6.72342 5.72138 6.59359 5.28638 6.54523L5.28602 6H4.68782L4.69225 6.53825C4.22635 6.5814 3.86882 6.74284 3.58856 7.02656C3.30831 7.30907 3.16734 7.65942 3.16734 8.07598C3.16734 8.48756 3.29148 8.83623 3.53976 9.1254C3.7865 9.41313 4.1757 9.62787 4.7072 9.76984V11.3649C4.56067 11.2985 4.42832 11.1931 4.30826 11.0458ZM5.30132 9.93411C5.54807 10.0006 5.7251 10.0942 5.83246 10.2177C5.9413 10.3402 5.99572 10.4874 5.99572 10.6565C5.99572 10.8479 5.93161 11.0135 5.80191 11.1541C5.67364 11.2947 5.5063 11.3858 5.30132 11.4272V9.93411ZM4.31535 8.4069C4.23002 8.29105 4.18825 8.16576 4.18825 8.03173C4.18825 7.88454 4.2341 7.7506 4.32764 7.62809C4.42118 7.50558 4.54679 7.41867 4.70709 7.36509V8.6856C4.53154 8.61499 4.40037 8.52138 4.31535 8.4069Z" fill="#252525"/>
</svg>
